<?xml version="1.0" encoding="utf-8"?>
<!-- Generator: Adobe Illustrator 15.1.0, SVG Export Plug-In . SVG Version: 6.00 Build 0)  -->
<!DOCTYPE svg PUBLIC "-//W3C//DTD SVG 1.1//EN" "http://www.w3.org/Graphics/SVG/1.1/DTD/svg11.dtd">
<svg version="1.1" id="Layer_1" xmlns="http://www.w3.org/2000/svg" xmlns:xlink="http://www.w3.org/1999/xlink" x="0px" y="0px"
	 width="320px" height="90px" viewBox="0 0 320 90" enable-background="new 0 0 320 90" xml:space="preserve">
<g>
	<g id="Layer_1_2_">
		<g>
			<path fill="#BD5339" d="M153.435,59.477l-0.397-0.188l-0.069-0.029c-0.087,0.141-0.175,0.287-0.261,0.424
				c-6.718,9.582-13.985,12.217-26.174,12.338l-7.426,0.072l-0.298-28.143h2.04h0.301l3.655-0.028
				c8.603-0.009,11.642,1.628,14.44,5.483h0.366l-0.008-11.713h-0.362c-1.888,4.307-5.005,5.713-15.925,5.823l-4.516,0.018
				l-0.288-27.562l9.089-0.854c12.995-0.133,18.318,2.696,25.219,12.025l0.549-0.212l-2.465-12.601v-0.207l-45.723,0.465
				l0.004,0.688c4.059-0.043,4.562,2.56,4.604,6.541l0.22,21.716H88.563l0.728-2.267l7.76-25.428
				c1.456-4.436,2.901-7.563,4.346-9.395c1.445-1.831,2.978-2.702,4.61-2.624c0.364,0.634,0.658,1.212,0.892,1.722
				c0.233,0.511,0.558,1.068,0.972,1.663c0.373,0.525,0.815,0.961,1.325,1.308c0.512,0.347,1.133,0.557,1.861,0.622
				c1.221,0.11,2.158-0.171,2.808-0.846c0.654-0.679,1.024-1.491,1.12-2.446c0.116-1.127-0.274-2.105-1.17-2.934
				c-0.896-0.833-2.378-1.341-4.438-1.528c-1.778-0.159-3.677,0.074-5.693,0.704c-2.012,0.628-3.856,1.583-5.521,2.855
				c-1.691,1.295-3.252,2.914-4.682,4.856c-1.425,1.944-2.55,4.172-3.374,6.679l-7.35,24.198l-0.915,2.859H68.796
				c4.573-11.478,8.725-22.261,9.035-22.877c1.438-3.209,2.051-4.299,5.129-5.389V14.72c-2.187,0.209-3.695,0.274-5.336,0.274
				c-1.299,0-2.735-0.065-4.717-0.274v0.549c2.942,0.41,4.376,1.705,4.376,3.754c0,0.682-0.137,1.434-0.479,2.318L61.076,61.064
				c0-0.205-6.772-15.494-11.489-26.824c1.984-3.068,3.627-5.867,4.926-8.396c1.299-2.524,1.983-4.299,2.049-5.188
				c0.067-0.955,0.067-1.5,0.067-1.569c0-3.209-2.46-4.504-6.7-4.504c-0.819,0-1.711,0.068-2.666,0.136l-4.996,0.209
				c-1.435,0.065-2.869,0.135-4.167,0.135c-2.668,0-5.266-0.135-8.823-0.34l-0.068,0.55c1.846,0.612,3.56,2.114,5.678,6.962
				l8.616,20.063c-3.76,5.734-7.522,11.877-10.465,18.154c-1.094-2.389-4.991-11.736-8.819-20.474
				c-2.188-5.118-4.586-10.783-7.25-16.855c-0.617-1.434-0.889-2.729-0.889-3.82c0-0.272,0.067-0.82,0.205-1.638
				c0.139-0.752,1.233-1.569,3.215-2.318v-0.55l-4.994,0.205c-1.434,0.069-2.869,0.14-4.167,0.14c-2.668,0-5.266-0.14-8.823-0.34
				l-0.07,0.549c0.889,0.338,1.849,0.955,2.738,1.907c0.889,0.955,1.846,2.661,2.871,5.05l21.812,50.576h0.549
				c1.983-9.762,8.409-20.271,14.429-29.758l12.786,29.689h0.615c3.762-9.486,7.114-18.018,10.055-25.525
				c0.442-1.112,0.887-2.225,1.332-3.331h13.074l-9.29,27.759c-1.347,3.941-4.538,8.604-6.034,10.652
				c-1.497,2.055-3.154,3.061-4.974,3.035c-0.257-0.492-0.558-1.082-0.902-1.758c-0.345-0.68-0.663-1.221-0.951-1.625
				c-0.375-0.508-0.819-0.939-1.342-1.295c-0.515-0.361-1.142-0.572-1.868-0.641c-1.148-0.105-2.064,0.184-2.744,0.854
				c-0.685,0.676-1.072,1.492-1.173,2.441c-0.118,1.125,0.277,2.102,1.173,2.934c0.894,0.828,2.369,1.34,4.429,1.521
				c3.745,0.34,8.426-1.721,12.275-4.516c3.854-2.799,7.463-7.438,9.059-12.246l8.98-26.838l0.091-0.278h21.581l0.211,20.478
				c0.052,5.283-0.68,7.83-5.351,7.877L104.885,73l38.113-0.385l8.335,0.102L153.435,59.477L153.435,59.477z M44.731,23.055
				c-0.752-1.914-0.955-3.071-0.955-3.821c0-0.409,0.065-0.75,0.135-1.092c0.275-1.364,1.299-2.319,3.422-2.661
				c4.032-0.34,8.614-0.34,8.614,3.616c-0.065,3.21-2.803,8.123-6.7,14.335c-2.258-5.188-3.965-9.211-4.512-10.373L44.731,23.055z"
				/>
			<polygon fill="#BD5339" points="157.606,49.486 155.117,49.486 152.881,37.817 154.65,37.817 156.561,47.75 158.378,37.833 
				160.17,37.833 161.965,47.768 163.801,37.817 165.388,37.817 163.173,49.486 160.775,49.486 159.219,41.568 			"/>
			<polygon fill="#BD5339" points="168.67,44.232 168.67,49.48 166.853,49.48 166.853,37.817 168.67,37.817 168.67,43.068 
				172.672,43.068 172.672,37.817 174.485,37.817 174.485,49.48 172.672,49.48 172.672,44.232 			"/>
			<rect x="176.352" y="37.817" fill="#BD5339" width="1.812" height="11.669"/>
			<path fill="#BD5339" d="M187.084,40.616v0.315h-1.727v-0.383c0-1.049-0.558-1.666-1.861-1.666c-1.303,0-1.861,0.617-1.861,1.652
				c0,2.616,5.471,2.866,5.471,6.151c0,1.767-1.189,2.913-3.684,2.913c-2.493,0-3.652-1.152-3.652-2.913V46.02h1.699v0.732
				c0,1.051,0.604,1.666,1.91,1.666c1.303,0,1.908-0.615,1.908-1.666c0-2.603-5.448-2.847-5.448-6.134
				c0-1.798,1.163-2.914,3.609-2.914c2.44,0,3.627,1.146,3.627,2.914"/>
			<polygon fill="#BD5339" points="191.461,44.415 190.502,45.566 190.502,49.486 188.688,49.486 188.688,37.817 190.502,37.817 
				190.502,43.452 194.835,37.817 196.674,37.817 192.551,43.134 196.813,49.486 194.948,49.486 			"/>
			<polygon fill="#BD5339" points="201.095,45.3 197.65,37.817 199.534,37.817 202.071,43.548 204.635,37.817 206.36,37.817 
				202.891,45.3 202.891,49.486 201.095,49.486 			"/>
			<path fill="#BD5339" d="M214.691,43.718c1.349,0,1.999-0.449,1.999-1.565v-1.55c0-1.065-0.534-1.6-1.861-1.6h-1.746v4.715
				H214.691L214.691,43.718z M214.831,37.817c2.563,0,3.657,1.083,3.657,2.849v1.399c0,1.853-1.212,2.816-3.797,2.816h-1.608v4.604
				h-1.812V37.817H214.831z"/>
			<path fill="#BD5339" d="M221.627,46.729c0,1.069,0.632,1.683,1.936,1.683c1.299,0,1.932-0.613,1.932-1.683v-6.164
				c0-1.05-0.606-1.683-1.932-1.683c-1.33,0-1.936,0.633-1.936,1.683V46.729z M219.831,40.636c0-1.787,1.238-2.934,3.728-2.934
				c2.488,0,3.748,1.15,3.748,2.934v6.033c0,1.767-1.233,2.931-3.748,2.931c-2.516,0-3.728-1.164-3.728-2.931V40.636z"/>
			<path fill="#BD5339" d="M230.755,46.729c0,1.052,0.58,1.683,1.91,1.683c1.325,0,1.883-0.631,1.883-1.683v-8.914h1.7v8.849
				c0,1.766-1.143,2.953-3.657,2.953c-2.516,0-3.632-1.188-3.632-2.953v-8.849h1.792v8.914H230.755z"/>
			<path fill="#BD5339" d="M241.204,43.316c1.441,0,2.307-0.336,2.307-1.6v-1.116c0-1.051-0.536-1.604-1.89-1.604h-1.771v4.318h1.35
				L241.204,43.316z M241.671,37.817c2.563,0,3.636,0.933,3.636,2.666v0.95c0,1.281-0.632,2.083-2.027,2.401
				c1.487,0.316,2.049,1.182,2.049,2.433v1.814c0,0.516,0.022,1,0.327,1.404h-1.84c-0.209-0.336-0.305-0.637-0.305-1.42v-1.833
				c0-1.317-0.858-1.735-2.371-1.735h-1.282v4.988h-1.817V37.817H241.671L241.671,37.817z"/>
			<polygon fill="#BD5339" points="253.197,49.486 253.197,39.001 250.189,39.001 250.189,37.817 258.019,37.817 258.019,39.001 
				255.011,39.001 255.011,49.486 			"/>
			<path fill="#BD5339" d="M260.922,46.729c0,1.069,0.632,1.683,1.936,1.683c1.299,0,1.931-0.613,1.931-1.683v-6.164
				c0-1.05-0.605-1.683-1.931-1.683c-1.332,0-1.936,0.633-1.936,1.683V46.729z M259.13,40.636c0-1.787,1.233-2.934,3.728-2.934
				c2.489,0,3.749,1.15,3.749,2.934v6.033c0,1.767-1.238,2.931-3.749,2.931c-2.516,0-3.728-1.164-3.728-2.931V40.636z"/>
			<path fill="#BD5339" d="M270.05,46.729c0,1.052,0.58,1.683,1.909,1.683c1.326,0,1.884-0.631,1.884-1.683v-8.914h1.7v8.849
				c0,1.766-1.143,2.953-3.657,2.953c-2.516,0-3.632-1.188-3.632-2.953v-8.849h1.792v8.914H270.05z"/>
			<path fill="#BD5339" d="M284.393,40.616v0.315h-1.727v-0.383c0-1.049-0.558-1.666-1.861-1.666s-1.861,0.617-1.861,1.652
				c0,2.616,5.471,2.866,5.471,6.151c0,1.767-1.186,2.913-3.677,2.913c-2.494,0-3.66-1.152-3.66-2.913V46.02h1.7v0.732
				c0,1.051,0.606,1.666,1.909,1.666c1.3,0,1.909-0.615,1.909-1.666c0-2.603-5.448-2.847-5.448-6.134
				c0-1.798,1.163-2.914,3.609-2.914c2.44,0,3.631,1.146,3.631,2.914"/>
		</g>
	</g>
</g>
</svg>
